# AST/ASF file generated using VICON BodyLanguage
# -----------------------------------------------
:version 1.10
:name VICON
:units
  mass 1.0
  length 0.45
  angle deg
:documentation
   .ast/.asf automatically generated from VICON data using
   VICON BodyBuilder and BodyLanguage model FoxedUp or BRILLIANT.MOD
:root
   order TX TY TZ RX RY RZ
   axis XYZ
   position 0 0 0  
   orientation 0 0 0 
:bonedata
  begin
     id 1 
     name lhipjoint
     direction 0.623529 -0.717805 0.309788 
     length 2.23224 
     axis 0 0 0  XYZ
  end
  begin
     id 2 
     name lfemur
     direction 0.34202 -0.939693 0  
     length 7.11402  
     axis 0 0 20  XYZ
    dof rx ry rz
    limits (-160.0 20.0)
           (-70.0 70.0)
           (-60.0 70.0)
  end
  begin
     id 3 
     name ltibia
     direction 0.34202 -0.939693 0   
     length 6.78496   
     axis 0 0 20   XYZ
    dof rx
    limits (-10.0 170.0)
  end
  begin
     id 4 
     name lfoot
     direction 0.125078 -0.343648 0.930732   
     length 1.84054   
     axis -90 7.62852e-016 20   XYZ
    dof rx rz
    limits (-45.0 90.0)
           (-70.0 20.0)
  end
  begin
     id 5 
     name ltoes
     direction 1.53565e-011 -4.21893e-011 1   
     length 0.916474   
     axis -90 7.62852e-016 20   XYZ
    dof rx
    limits (-90.0 20.0)
  end
  begin
     id 6 
     name rhipjoint
     direction -0.564688 -0.757748 0.327026   
     length 2.11457  
     axis 0 0 0  XYZ 
  end
  begin
     id 7 
     name rfemur
     direction -0.34202 -0.939693 0   
     length 7.14609   
     axis 0 0 -20   XYZ
    dof rx ry rz
    limits (-160.0 20.0)
           (-70.0 70.0)
           (-70.0 60.0)
  end
  begin
     id 8 
     name rtibia
     direction -0.34202 -0.939693 0   
     length 6.78101   
     axis 0 0 -20   XYZ
    dof rx
    limits (-10.0 170.0)
 end
 begin
     id 9 
     name rfoot
     direction -0.0992671 -0.272734 0.956955   
     length 1.96168  
     axis -90 -7.62852e-016 -20   XYZ
    dof rx rz
    limits (-45.0 90.0)
           (-20.0 70.0)
  end
  begin
     id 10 
     name rtoes
     direction -1.5356e-011 -4.21891e-011 1   
     length 0.982933   
     axis -90 -7.62852e-016 -20   XYZ
    dof rx
    limits (-90.0 20.0)
  end
  begin
     id 11 
     name lowerback
     direction -0.00596953 0.998668 0.0512524   
     length 1.87557   
     axis 0 0 0   XYZ
    dof rx ry rz
    limits (-20.0 45.0)
           (-30.0 30.0)
           (-30.0 30.0)
  end
  begin
     id 12 
     name upperback
     direction 0.00584879 0.999652 0.0257308   
     length 1.87883   
     axis 0 0 0   XYZ
    dof rx ry rz
    limits (-20.0 45.0)
           (-30.0 30.0)
           (-30.0 30.0)
  end
  begin
     id 13 
     name thorax
     direction 0.010104 0.999947 0.00178881   
     length 1.87779   
     axis 0 0 0   XYZ
    dof rx ry rz
    limits (-20.0 45.0)
           (-30.0 30.0)
           (-30.0 30.0)
  end
  begin
     id 14 
     name lowerneck
     direction 0.0120771 0.995934 -0.0892773   
     length 1.40897   
     axis 0 0 0   XYZ
    dof rx ry rz
    limits (-20.0 45.0)
           (-30.0 30.0)
           (-30.0 30.0)
  end
  begin
     id 15 
     name upperneck
     direction -0.030568 0.999465 -0.0116366   
     length 1.38661   
     axis 0 0 0   XYZ
    dof rx ry rz
    limits (-20.0 45.0)
           (-30.0 30.0)
           (-30.0 30.0)
  end
  begin
     id 16
     name head
     direction -0.0170715 0.999854 -0.00104426  
     length 1.47052  
     axis 0 0 0   XYZ
    dof rx ry rz
    limits (-20.0 45.0)
           (-30.0 30.0)
           (-30.0 30.0)
  end
  begin
     id 17 
     name lclavicle
     direction 0.977763 0.206143 0.038532  
     length 3.02424  
     axis 0 0 0   XYZ
    dof ry rz
    limits (-20.0 10.0)
           (0.0 20.0)
  end
  begin
     id 18 
     name lhumerus
     direction 1 -4.48965e-011 -2.62654e-027   
     length 4.68382   
     axis 180 -30 -90   XYZ
    dof rx ry rz
    limits (-60.0 90.0)
           (-90.0 90.0)
           (-90.0 90.0)
  end
  begin
     id 19
     name lradius
     direction 1 -4.48973e-011 -1.54954e-027   
     length 2.98124   
     axis 180 -30 -90   XYZ
    dof rx
    limits (-10.0 170.0)
  end
  begin
     id 20
     name lwrist
     direction 1 -4.48959e-011 7.20928e-028   
     length 1.49062   
     axis -5.52449e-016 90 90   XYZ
    dof ry
    limits (-180.0 0.0)
 end
  begin
     id 21 
     name lhand
     direction 1 -4.48971e-011 1.44186e-027   
     length 0.707595   
     axis -9.20027e-016 90 90   XYZ
    dof rx rz
    limits (-90.0 90.0)
           (-45.0 45.0)
  end
  begin
     id 22 
     name lfingers
     direction 1 -4.48985e-011 2.88371e-027   
     length 0.570481   
     axis -1.84005e-015 90 90   XYZ
    dof rx
    limits (0.0 90.0)
  end
  begin
     id 23
     name lthumb
     direction 0.707107 -6.34929e-011 0.707107   
     length 0.819101   
     axis -90 45 2.85299e-015   XYZ
    dof rx rz
    limits (-45.0 45.0)
           (-45.0 45.0)
  end
  begin
     id 24 
     name rclavicle
     direction -0.958661 0.284411 -0.00895327   
     length 3.11921  
     axis 0 0 0   XYZ 
    dof ry rz
    limits (-10.0 20.0)
           (-20.0 0.0)
  end
  begin
     id 25 
     name rhumerus
     direction -1 -4.48963e-011 -4.22193e-027  
     length 4.75876   
     axis 180 30 90   XYZ
    dof rx ry rz
    limits (-90.0 60.0)
           (-90.0 90.0)
           (-90.0 90.0)
  end
  begin
     id 26 
     name rradius
     direction -1 -4.48968e-011 -1.07616e-027   
     length 2.93293   
     axis 180 30 90   XYZ
    dof rx
    limits (-10.0 170.0)
  end
  begin
     id 27 
     name rwrist
     direction -1 -4.48965e-011 7.20928e-028   
     length 1.46647   
     axis -5.52449e-016 -90 -90   XYZ
    dof ry
    limits (-180.0 0.0)
  end
  begin
     id 28
     name rhand
     direction -1 -4.48971e-011 1.44186e-027   
     length 0.831748   
     axis -9.20027e-016 -90 -90   XYZ
    dof rx rz
    limits (-90.0 90.0)
           (-45.0 45.0)
  end
  begin
     id 29
     name rfingers
     direction -1 -4.48961e-011 2.88371e-027   
     length 0.670577   
     axis -1.84005e-015 -90 -90   XYZ
    dof rx
    limits (0.0 90.0)
  end
  begin
     id 30
     name rthumb
     direction -0.707107 -6.34929e-011 0.707107   
     length 0.962818   
     axis -90 -45 -2.85299e-015   XYZ
    dof rx rz
    limits (-45.0 45.0)
           (-45.0 45.0)
  end
:hierarchy
  begin
    root lhipjoint rhipjoint lowerback
    lhipjoint lfemur
    lfemur ltibia
    ltibia lfoot
    lfoot ltoes
    rhipjoint rfemur
    rfemur rtibia
    rtibia rfoot
    rfoot rtoes
    lowerback upperback
    upperback thorax
    thorax lowerneck lclavicle rclavicle
    lowerneck upperneck
    upperneck head
    lclavicle lhumerus
    lhumerus lradius
    lradius lwrist
    lwrist lhand lthumb
    lhand lfingers
    rclavicle rhumerus
    rhumerus rradius
    rradius rwrist
    rwrist rhand rthumb
    rhand rfingers
  end

#!OML:ASF E:\id_vita\Project 1\Capture day 1\Session 1\Female.ASF
:FULLY-SPECIFIED
:DEGREES
1
root 45.9006 16.5341 -0.890087 -169.241 -75.5904 -174.464
lowerback -13.4816 0.956216 -4.47688
upperback -3.14199 1.70482 0.549452
thorax 4.08547 0.739072 3.38495
lowerneck 5.30281 -1.26882 -4.20361
upperneck -7.05004 -1.80282 3.58027
head -3.14397 -0.928464 1.99651
rclavicle 7.26806e-015 2.16675e-014
rhumerus -35.1765 -31.1836 -72.695
rradius 18.6454
rwrist 30.9596
rhand -15.1725 13.8966
rfingers 7.12502
rthumb 10.9983 -15.7953
lclavicle 7.26806e-015 2.16675e-014
lhumerus -35.5275 38.6529 69.7675
lradius 16.4563
lwrist -47.6748
lhand -7.70617 22.6507
lfingers 7.12502
lthumb 18.1915 51.82
rfemur -19.7875 3.53502 21.0419
rtibia 26.5559
rfoot -11.0039 -16.0702
rtoes -13.4482
lfemur -25.5905 -13.3314 -13.6066
ltibia 29.7463
lfoot -18.41 15.075
ltoes -2.32327
2
root 45.9002 16.5325 -0.913086 -169.643 -75.5032 -174.339
lowerback -12.556 1.02567 -4.7557
upperback -3.53691 1.76126 0.757051
thorax 3.1428 0.795637 3.73435
lowerneck 5.37145 -1.28579 -4.39831
upperneck -6.50386 -1.85458 3.44399
head -2.96782 -0.944195 1.97884
rclavicle -3.33834e-014 -1.98785e-016
rhumerus -35.8169 -29.8342 -72.5375
rradius 19.0832
rwrist 29.8683
rhand -15.0681 13.3504
rfingers 7.12502
rthumb 11.099 -16.3361
lclavicle -3.33834e-014 -1.98785e-016
lhumerus -37.0946 39.0897 68.852
lradius 16.42
lwrist -48.4216
lhand -7.89892 22.268
lfingers 7.12502
lthumb 18.0061 51.4545
rfemur -19.3227 3.64614 21.1697
rtibia 26.2867
rfoot -11.0765 -16.0822
rtoes -13.0553
lfemur -25.2342 -13.6425 -13.51
ltibia 29.7349
lfoot -18.3576 15.475
ltoes -2.31906
3
root 45.912 16.5352 -0.938437 -169.536 -75.5705 -174.292
lowerback -12.0107 1.03701 -5.29712
upperback -4.00471 1.77401 1.06356
thorax 2.32222 0.83044 4.33862
lowerneck 5.64356 -1.33624 -4.60379
upperneck -6.31172 -1.9613 3.27394
head -2.94915 -0.987139 1.96482
rclavicle 8.82107e-016 1.0138e-014
rhumerus -36.3137 -28.6099 -72.25
rradius 19.3962
rwrist 28.7431
rhand -15.1233 13.0657
rfingers 7.12502
rthumb 11.0459 -16.6237
lclavicle 8.82107e-016 1.0138e-014
lhumerus -38.6903 40.0272 67.7818
lradius 16.2142
lwrist -49.8166
lhand -7.92492 22.1523
lfingers 7.12502
lthumb 17.9811 51.3411
rfemur -19.3949 3.66286 21.3043
rtibia 26.0496
rfoot -10.8882 -16.2073
rtoes -13.067
lfemur -25.4631 -13.4283 -13.3824
ltibia 29.8071
lfoot -18.4067 15.3196
ltoes -2.42747
4
root 45.9308 16.5373 -0.964499 -169.279 -75.8803 -174.526
lowerback -13.4166 0.950258 -4.78327
upperback -2.9269 1.75008 0.612152
thorax 4.26057 0.754762 3.63417
lowerneck 5.26618 -1.28987 -4.44945
upperneck -7.33871 -1.83378 3.79209
head -3.23383 -0.945164 2.11883
rclavicle -1.4884e-014 -1.88845e-014
rhumerus -34.3857 -29.3962 -73.8015
rradius 19.296
rwrist 28.6998
rhand -15.307 12.8784
rfingers 7.12502
rthumb 10.8687 -16.8203
lclavicle -1.4884e-014 -1.88845e-014
lhumerus -37.2173 41.8447 67.3367
lradius 15.6639
lwrist -51.4508
lhand -7.88759 22.3634
lfingers 7.12502
lthumb 18.017 51.5489
rfemur -19.3276 3.72035 21.386
rtibia 25.8233
rfoot -10.5542 -16.6186
rtoes -13.3249
lfemur -25.5953 -13.1317 -13.3757
ltibia 29.8393
lfoot -18.5138 14.8664
ltoes -2.87865
5
root 45.9268 16.5363 -0.986159 -169.445 -75.7446 -174.401
lowerback -13.5807 1.05809 -4.66045
upperback -2.86637 1.89045 0.53417
thorax 4.40801 0.820614 3.51171
lowerneck 5.36059 -1.26304 -4.47106
upperneck -7.36647 -1.79306 3.91589
head -3.2633 -0.929616 2.16539
rclavicle 9.54166e-015 -2.18663e-015
rhumerus -34.4382 -29.4929 -73.8156
rradius 19.3501
rwrist 28.7605
rhand -15.395 12.8424
rfingers 7.12502
rthumb 10.7838 -16.8608
lclavicle 9.54166e-015 -2.18663e-015
lhumerus -37.6899 42.2794 66.7328
lradius 15.5424
lwrist -51.9227
lhand -7.87752 22.7322
lfingers 7.12502
lthumb 18.0267 51.9168
rfemur -19.1568 3.88749 21.4769
rtibia 25.6431
rfoot -10.5056 -16.6955
rtoes -13.4068
lfemur -25.4852 -13.2467 -13.2794
ltibia 29.8653
lfoot -18.4951 15.1523
ltoes -3.18789
6
root 45.9232 16.5354 -1.00437 -169.632 -75.7231 -174.225
lowerback -13.7535 1.10705 -4.45503
upperback -2.83216 1.93832 0.472013
thorax 4.54403 0.842155 3.3442
lowerneck 5.4713 -1.27144 -4.36098
upperneck -7.40139 -1.80584 3.81883
head -3.29643 -0.935726 2.11592
rclavicle -1.81391e-015 5.76476e-015
rhumerus -34.5854 -30.0382 -73.4226
rradius 19.1844
rwrist 29.4812
rhand -15.133 13.3897
rfingers 7.12502
rthumb 11.0365 -16.3002
lclavicle -1.81391e-015 5.76476e-015
lhumerus -38.4949 43.1704 65.6605
lradius 15.3035
lwrist -52.9393
lhand -7.99423 22.7123
lfingers 7.12502
lthumb 17.9144 51.9072
rfemur -19.0305 3.88743 21.5966
rtibia 25.4864
rfoot -10.6404 -16.6877
rtoes -12.93
lfemur -25.4456 -13.5576 -13.1217
ltibia 29.8612
lfoot -18.3574 15.4993
ltoes -3.30914
7
root 45.9409 16.537 -1.02993 -169.586 -75.9019 -174.167
lowerback -13.6717 1.03356 -4.50662
upperback -2.94339 1.83582 0.504486
thorax 4.38783 0.795358 3.38559
lowerneck 5.51387 -1.22862 -4.4218
upperneck -7.3199 -1.75853 3.77396
head -3.27875 -0.908728 2.10907
rclavicle -1.85615e-014 9.93923e-015
rhumerus -34.6661 -30.0425 -73.2189
rradius 19.0717
rwrist 29.7106
rhand -14.869 13.9279
rfingers 7.12502
rthumb 11.2911 -15.7482
lclavicle -1.85615e-014 9.93923e-015
lhumerus -39.7229 44.4029 64.1668
lradius 15.0186
lwrist -54.3874
lhand -8.13178 22.4632
lfingers 7.12502
lthumb 17.782 51.6702
rfemur -19.0528 4.03261 21.726
rtibia 25.3284
rfoot -10.7273 -16.8991
rtoes -12.1975
lfemur -25.639 -13.3675 -12.9691
ltibia 29.8606
lfoot -18.372 15.2138
ltoes -3.42184
